<svg width="24" height="24" viewBox="0 0 24 24" fill="none" xmlns="http://www.w3.org/2000/svg">
<path d="M22.75 12C22.7533 10.1711 22.29 8.37151 21.4038 6.7716C20.5176 5.1717 19.2379 3.82435 17.6857 2.85702C16.1335 1.88969 14.3602 1.33437 12.5335 1.2436C10.7068 1.15283 8.88721 1.52961 7.24677 2.33829C5.60633 3.14698 4.19934 4.36082 3.15891 5.86499C2.11848 7.36916 1.47902 9.11391 1.30103 10.9342C1.12304 12.7544 1.4124 14.59 2.14174 16.2672C2.87108 17.9444 4.01628 19.4078 5.46899 20.519L5.48199 20.529C7.34968 21.969 9.64164 22.7499 12 22.7499C14.3583 22.7499 16.6503 21.969 18.518 20.529L18.531 20.519C19.8417 19.5188 20.9041 18.2299 21.6358 16.7524C22.3675 15.275 22.7488 13.6487 22.75 12ZM2.74999 12C2.74816 10.4812 3.12035 8.98529 3.83368 7.64443C4.54701 6.30356 5.57955 5.15898 6.84009 4.31175C8.10063 3.46452 9.5504 2.94072 11.0614 2.7866C12.5723 2.63249 14.098 2.8528 15.5036 3.42808C16.9093 4.00337 18.1516 4.91592 19.121 6.08516C20.0903 7.25439 20.7569 8.64433 21.0617 10.1322C21.3666 11.6201 21.3004 13.1602 20.8689 14.6164C20.4375 16.0727 19.6541 17.4003 18.588 18.482C18.3625 17.3811 17.7419 16.4009 16.8432 15.7262C15.9446 15.0516 14.83 14.7292 13.71 14.82H10.29C9.16994 14.7292 8.05541 15.0516 7.15675 15.7262C6.25809 16.4009 5.63745 17.3811 5.41199 18.482C3.7058 16.7561 2.74924 14.4269 2.74999 12ZM6.75899 19.614C6.7489 19.1582 6.83526 18.7054 7.01238 18.2853C7.18951 17.8652 7.4534 17.4872 7.78679 17.1762C8.12017 16.8652 8.5155 16.6282 8.94689 16.4806C9.37827 16.333 9.83597 16.2783 10.29 16.32H13.71C14.164 16.2783 14.6217 16.333 15.0531 16.4806C15.4845 16.6282 15.8798 16.8652 16.2132 17.1762C16.5466 17.4872 16.8105 17.8652 16.9876 18.2853C17.1647 18.7054 17.2511 19.1582 17.241 19.614C15.7009 20.6793 13.8727 21.25 12 21.25C10.1273 21.25 8.29912 20.6793 6.75899 19.614ZM12.008 13.75C12.7497 13.75 13.4747 13.5301 14.0914 13.118C14.7081 12.7059 15.1887 12.1203 15.4725 11.435C15.7564 10.7498 15.8306 9.99582 15.6859 9.2684C15.5412 8.54097 15.1841 7.87278 14.6596 7.34833C14.1352 6.82389 13.467 6.46673 12.7396 6.32204C12.0121 6.17734 11.2581 6.25161 10.5729 6.53544C9.8877 6.81926 9.30203 7.29991 8.88997 7.9166C8.47792 8.53328 8.25799 9.2583 8.25799 9.99998C8.25931 10.9941 8.65482 11.9472 9.3578 12.6502C10.0608 13.3531 11.0138 13.7487 12.008 13.75ZM12.008 7.74998C12.453 7.74998 12.888 7.88194 13.258 8.12918C13.628 8.37641 13.9164 8.72781 14.0867 9.13895C14.257 9.55008 14.3016 10.0025 14.2148 10.4389C14.1279 10.8754 13.9136 11.2763 13.599 11.591C13.2843 11.9056 12.8834 12.1199 12.4469 12.2068C12.0105 12.2936 11.5581 12.249 11.1469 12.0787C10.7358 11.9084 10.3844 11.62 10.1372 11.25C9.88995 10.88 9.75799 10.445 9.75799 9.99998C9.75878 9.40349 9.99609 8.83166 10.4179 8.40987C10.8397 7.98809 11.4115 7.75078 12.008 7.74998Z" fill="#8D8D8D"/>
</svg>
